<svg width="31" height="32" viewBox="0 0 31 32" fill="none" xmlns="http://www.w3.org/2000/svg">
<g clip-path="url(#clip0_10_51)">
<path fill-rule="evenodd" clip-rule="evenodd" d="M15.5 29C17.7109 29.0033 19.8833 28.403 21.7969 27.26V23C21.7969 21.8065 21.3376 20.6619 20.52 19.818C19.7025 18.9741 18.5937 18.5 17.4375 18.5H13.5625C12.4063 18.5 11.2975 18.9741 10.48 19.818C9.66242 20.6619 9.20312 21.8065 9.20312 23V27.26C11.1167 28.403 13.2891 29.0033 15.5 29ZM24.7031 23V24.874C26.3785 23.0226 27.4933 20.7063 27.9105 18.2097C28.3277 15.7131 28.0291 13.145 27.0514 10.8212C26.0737 8.49747 24.4595 6.51923 22.4073 5.12969C20.3551 3.74015 17.9543 2.99988 15.5 2.99988C13.0457 2.99988 10.6449 3.74015 8.59268 5.12969C6.54047 6.51923 4.92631 8.49747 3.94862 10.8212C2.97094 13.145 2.67234 15.7131 3.08953 18.2097C3.50671 20.7063 4.62151 23.0226 6.29688 24.874V23C6.2963 21.4536 6.75879 19.9449 7.62104 18.6803C8.48328 17.4158 9.70311 16.4572 11.1135 15.936C10.3819 15.0673 9.90775 13.9997 9.74769 12.8606C9.58763 11.7214 9.74838 10.5588 10.2108 9.51137C10.6732 8.46392 11.4177 7.57588 12.3555 6.95317C13.2933 6.33045 14.3849 5.99935 15.5 5.99935C16.6151 5.99935 17.7067 6.33045 18.6445 6.95317C19.5823 7.57588 20.3268 8.46392 20.7892 9.51137C21.2516 10.5588 21.4124 11.7214 21.2523 12.8606C21.0922 13.9997 20.6181 15.0673 19.8865 15.936C21.2969 16.4572 22.5167 17.4158 23.379 18.6803C24.2412 19.9449 24.7037 21.4536 24.7031 23ZM15.5 32C19.6109 32 23.5533 30.3143 26.4602 27.3137C29.367 24.3131 31 20.2435 31 16C31 11.7565 29.367 7.68687 26.4602 4.68629C23.5533 1.68571 19.6109 0 15.5 0C11.3891 0 7.44666 1.68571 4.53984 4.68629C1.63303 7.68687 0 11.7565 0 16C0 20.2435 1.63303 24.3131 4.53984 27.3137C7.44666 30.3143 11.3891 32 15.5 32ZM18.4062 12C18.4062 12.7956 18.1001 13.5587 17.555 14.1213C17.01 14.6839 16.2708 15 15.5 15C14.7292 15 13.99 14.6839 13.445 14.1213C12.8999 13.5587 12.5938 12.7956 12.5938 12C12.5938 11.2044 12.8999 10.4413 13.445 9.87868C13.99 9.31607 14.7292 9 15.5 9C16.2708 9 17.01 9.31607 17.555 9.87868C18.1001 10.4413 18.4062 11.2044 18.4062 12Z" fill="black"/>
</g>
<defs>
<clipPath id="clip0_10_51">
<rect width="31" height="32" fill="white"/>
</clipPath>
</defs>
</svg>
