<svg width="26" height="26" viewBox="0 0 26 26" fill="none" xmlns="http://www.w3.org/2000/svg">
<path d="M13.0011 0.5C9.60637 0.5 9.18025 0.514875 7.847 0.5755C6.51625 0.6365 5.60787 0.847125 4.81313 1.15625C3.99088 1.4755 3.2935 1.90262 2.59875 2.59762C1.90338 3.2925 1.47625 3.98987 1.156 4.81175C0.846 5.60675 0.635125 6.5155 0.57525 7.84562C0.515625 9.179 0.5 9.60525 0.5 13.0001C0.5 16.395 0.515 16.8197 0.5755 18.153C0.63675 19.4837 0.847375 20.3921 1.15625 21.1869C1.47575 22.0091 1.90288 22.7065 2.59788 23.4013C3.2925 24.0966 3.98988 24.5247 4.8115 24.844C5.60687 25.1531 6.51537 25.3637 7.84587 25.4247C9.17925 25.4854 9.605 25.5002 12.9996 25.5002C16.3948 25.5002 16.8195 25.4854 18.1528 25.4247C19.4835 25.3637 20.3929 25.1531 21.1882 24.844C22.0101 24.5247 22.7065 24.0966 23.401 23.4013C24.0964 22.7065 24.5234 22.0091 24.8438 21.1873C25.151 20.3921 25.362 19.4835 25.4245 18.1532C25.4844 16.82 25.5 16.395 25.5 13.0001C25.5 9.60525 25.4844 9.17925 25.4245 7.84587C25.362 6.51512 25.151 5.60688 24.8438 4.81213C24.5234 3.98988 24.0964 3.2925 23.401 2.59762C22.7057 1.90237 22.0104 1.47525 21.1875 1.15637C20.3906 0.847125 19.4817 0.636375 18.151 0.5755C16.8176 0.514875 16.3931 0.5 12.9972 0.5H13.0011ZM11.8798 2.75262C12.2126 2.75213 12.584 2.75262 13.0011 2.75262C16.3388 2.75262 16.7342 2.76463 18.0522 2.8245C19.271 2.88025 19.9325 3.08388 20.3731 3.255C20.9565 3.4815 21.3724 3.75238 21.8096 4.19C22.2471 4.6275 22.5179 5.04412 22.745 5.6275C22.9161 6.0675 23.12 6.729 23.1755 7.94775C23.2354 9.2655 23.2484 9.66125 23.2484 12.9972C23.2484 16.3333 23.2354 16.7291 23.1755 18.0467C23.1198 19.2655 22.9161 19.927 22.745 20.3671C22.5185 20.9505 22.2471 21.3659 21.8096 21.8031C21.3721 22.2406 20.9568 22.5114 20.3731 22.738C19.933 22.9099 19.271 23.113 18.0522 23.1688C16.7345 23.2286 16.3388 23.2416 13.0011 23.2416C9.66338 23.2416 9.26775 23.2286 7.95012 23.1688C6.73137 23.1125 6.06987 22.9089 5.62887 22.7377C5.04562 22.5111 4.62887 22.2404 4.19137 21.8029C3.75387 21.3654 3.48312 20.9498 3.256 20.3661C3.08488 19.926 2.881 19.2645 2.8255 18.0457C2.76562 16.728 2.75362 16.3323 2.75362 12.9941C2.75362 9.656 2.76562 9.26237 2.8255 7.94462C2.88125 6.72587 3.08488 6.06437 3.256 5.62375C3.48263 5.04037 3.75388 4.62375 4.1915 4.18625C4.62913 3.74875 5.04562 3.47787 5.629 3.25087C6.06962 3.079 6.73137 2.87587 7.95012 2.81987C9.10325 2.76775 9.55013 2.75212 11.8798 2.7495V2.75262ZM19.6736 4.82812C18.8455 4.82812 18.1736 5.49938 18.1736 6.32763C18.1736 7.15575 18.8455 7.82763 19.6736 7.82763C20.5018 7.82763 21.1736 7.15575 21.1736 6.32763C21.1736 5.4995 20.5018 4.82762 19.6736 4.82762V4.82812ZM13.0011 6.58075C9.45613 6.58075 6.58187 9.455 6.58187 13.0001C6.58187 16.5452 9.45613 19.4181 13.0011 19.4181C16.5462 19.4181 19.4195 16.5452 19.4195 13.0001C19.4195 9.45513 16.546 6.58075 13.0009 6.58075H13.0011ZM13.0011 8.83337C15.3022 8.83337 17.1679 10.6988 17.1679 13.0001C17.1679 15.3013 15.3022 17.1669 13.0011 17.1669C10.7 17.1669 8.8345 15.3013 8.8345 13.0001C8.8345 10.6988 10.6999 8.83337 13.0011 8.83337Z" fill="white"/>
</svg>
