<svg width="89" height="32" viewBox="0 0 89 32" fill="none" xmlns="http://www.w3.org/2000/svg">
<g id="Group 1">
<path id="Vector" fill-rule="evenodd" clip-rule="evenodd" d="M53.0187 6.7899C52.9606 7.5005 52.8397 8.20518 52.7403 8.91209C52.552 10.2526 52.3728 11.5946 52.164 12.9322C52.0257 13.8189 51.7201 14.0802 50.8484 14.1054C50.2334 14.1224 49.6176 14.1091 49.0022 14.1047C48.9324 14.1039 48.8629 14.0713 48.6992 14.0292C49.0117 11.3289 49.4405 8.64339 49.816 5.8528C50.6706 5.8528 51.455 5.82318 52.2359 5.86242C52.8324 5.89202 53.069 6.17627 53.0187 6.7899ZM60.2872 4.03706C60.1645 2.094 59.3067 1.01551 57.4201 0.48404C56.2249 0.147243 54.9969 0.0569387 53.7627 0.0554583C47.8727 0.0473159 41.9828 0.0465779 36.0926 0.0465779C35.9057 0.0465779 35.7188 0.0880297 35.5052 0.113197C35.0009 3.52853 34.1578 6.81581 33.0188 10.0246C31.8741 13.2497 30.4948 16.3675 28.7567 19.3165C28.7024 19.3024 28.6481 19.2876 28.5938 19.2736C29.4847 12.8885 30.3757 6.50344 31.2723 0.0769237C30.9569 0.0628596 30.7383 0.0443558 30.5195 0.045096C20.6627 0.0532384 10.8058 0.0628604 0.948838 0.0739635C0.932868 0.0739635 0.914088 0.101352 0.901808 0.119117C0.888128 0.139843 0.880368 0.163528 0.855368 0.217564C1.01495 0.385591 1.18023 0.565465 1.35246 0.737934C2.06562 1.45446 2.76836 2.18209 3.50164 2.87789C3.78347 3.1451 3.90511 3.41084 3.80831 3.78835C3.76587 3.95341 3.77304 4.13106 3.74886 4.30205C3.32668 7.27844 2.89933 10.2533 2.48078 13.2305C1.73973 18.5008 1.00275 23.7711 0.267398 29.0421C0.169861 29.7416 0.092585 30.4433 0 31.1917C2.38028 31.1917 4.68483 31.1917 7.06548 31.1917C7.63119 27.1516 8.19342 23.1375 8.76587 19.05C11.0165 19.05 13.1977 19.05 15.4305 19.05C15.7136 17.0078 15.9861 15.0425 16.273 12.9729C14.0126 12.9729 11.8569 12.9729 9.61225 12.9729C9.94295 10.636 10.2591 8.40282 10.5726 6.18663C11.698 6.03637 19.2539 6.08744 19.7804 6.24733C19.7655 6.48567 19.7507 6.73068 19.735 6.97643C19.6278 8.64857 19.483 10.32 19.4206 11.9936C19.2705 16.0285 19.5855 20.0256 20.5171 23.9613C21.0983 26.4166 21.9112 28.7897 23.186 30.9829C23.3808 31.3175 23.6135 31.6306 23.8597 32C24.2065 31.8024 24.5078 31.6439 24.7955 31.4648C26.748 30.2442 28.5264 28.803 30.1635 27.1871C36.1362 21.2936 39.7292 14.1239 41.4799 5.97419C41.7264 4.82686 41.9144 3.66695 42.1381 2.46633C42.7668 2.84902 43.1495 3.27538 42.9386 4.0415C42.8282 4.44269 42.8013 4.86683 42.7433 5.28209C42.3271 8.25848 41.9134 11.2363 41.4971 14.2135C41.1251 16.873 40.7507 19.5326 40.3775 22.1922C39.97 25.096 39.5619 27.9992 39.159 30.9037C39.1471 30.9896 39.1902 31.0829 39.2129 31.1998C41.551 31.1998 43.8596 31.1998 46.2532 31.1998C46.804 27.3396 47.3521 23.4987 47.9083 19.6007C48.5827 19.6007 49.1944 19.5918 49.8058 19.6029C50.499 19.6163 50.8652 19.9205 50.9491 20.5993C50.9939 20.9627 50.9903 21.3424 50.9413 21.7051C50.635 23.9761 50.3083 26.2441 49.9912 28.5136C49.8692 29.3863 49.7552 30.2605 49.6304 31.1872C52.0292 31.1872 54.3562 31.1872 56.7299 31.1872C56.7784 30.9193 56.8289 30.6817 56.8634 30.4426C57.1935 28.1501 57.5441 25.8599 57.8392 23.5631C58.0022 22.2943 58.156 21.0145 58.1605 19.7384C58.1665 18.0233 57.4396 17.1736 55.8014 16.6917C55.6847 16.6569 55.5648 16.634 55.4465 16.6058C55.4349 16.5747 55.4235 16.5429 55.4119 16.5118C55.6004 16.463 55.7866 16.4001 55.978 16.3682C57.5173 16.1121 58.4911 15.2076 58.9828 13.7501C59.0774 13.471 59.1884 13.1912 59.2379 12.9026C59.4842 11.471 59.7341 10.0394 59.9404 8.60194C60.1578 7.08969 60.3841 5.57596 60.2872 4.03706Z" fill="white"/>
<path id="Vector_2" fill-rule="evenodd" clip-rule="evenodd" d="M81.7118 19.6681C80.5175 19.6681 79.375 19.6681 78.1482 19.6681C79.3447 15.1698 80.5309 10.7078 81.717 6.24583C81.7865 6.24805 81.856 6.24953 81.9255 6.25101C81.8545 10.7056 81.7836 15.1595 81.7118 19.6681ZM73.5634 0.196825C74.2947 0.929634 74.9802 1.66836 75.7256 2.3427C76.1693 2.74389 76.244 3.11326 76.0791 3.68914C73.5708 12.4754 71.0868 21.2699 68.5991 30.0629C68.5008 30.4108 68.4224 30.7653 68.3189 31.1806C70.7111 31.1806 73.0361 31.1806 75.4158 31.1806C75.8795 29.4411 76.3409 27.7141 76.7949 26.0109C78.3434 26.0109 79.8113 26.0109 81.3132 26.0109C81.3132 27.7482 81.3132 29.4403 81.3132 31.1821C83.6441 31.1821 85.9491 31.1821 88.3066 31.1821C88.4967 29.367 88.3214 0.683142 88.124 0.0843114C86.2967 -0.0726133 74.1357 0.00362983 73.5634 0.196825Z" fill="white"/>
<path id="Vector_3" fill-rule="evenodd" clip-rule="evenodd" d="M60.1335 0.0909729C60.3458 0.330801 60.4789 0.495867 60.6275 0.64539C61.3389 1.36265 62.0385 2.09398 62.7757 2.78385C63.1359 3.12139 63.2468 3.44782 63.164 3.94747C62.9096 5.47748 62.7188 7.01786 62.5058 8.55454C62.0422 11.8966 61.5829 15.2394 61.1156 18.5807C60.5965 22.2877 60.0699 25.9939 59.5493 29.7009C59.4813 30.182 59.4325 30.6654 59.3697 31.1931C61.7516 31.1931 64.0573 31.1931 66.4355 31.1931C67.8916 20.7806 69.3358 10.4539 70.7852 0.0909729C67.2023 0.0909729 63.7238 0.0909729 60.1335 0.0909729Z" fill="white"/>
</g>
</svg>
